HIERARCHY
ROOT Hips
{
	OFFSET 0.00000 0.00000 0.00000
	CHANNELS 6 Xposition Yposition Zposition Zrotation Yrotation Xrotation 
	JOINT LHipJoint
	{
		OFFSET 0 0 0
		CHANNELS 3 Zrotation Yrotation Xrotation
		JOINT LeftUpLeg
		{
			OFFSET 1.56857 -1.73443 1.15205
			CHANNELS 3 Zrotation Yrotation Xrotation
			JOINT LeftLeg
			{
				OFFSET 2.39362 -6.57643 0.00000
				CHANNELS 3 Zrotation Yrotation Xrotation
				JOINT LeftFoot
				{
					OFFSET 2.50952 -6.89485 0.00000
					CHANNELS 3 Zrotation Yrotation Xrotation
					JOINT LeftToeBase
					{
						OFFSET 0.17171 -0.47178 1.88682
						CHANNELS 3 Zrotation Yrotation Xrotation
						End Site
						{
							OFFSET 0.00000 -0.00000 0.98146
						}
					}
				}
			}
		}
	}
	JOINT RHipJoint
	{
		OFFSET 0 0 0
		CHANNELS 3 Zrotation Yrotation Xrotation
		JOINT RightUpLeg
		{
			OFFSET -1.28153 -1.73443 1.15205
			CHANNELS 3 Zrotation Yrotation Xrotation
			JOINT RightLeg
			{
				OFFSET -2.26861 -6.23296 0.00000
				CHANNELS 3 Zrotation Yrotation Xrotation
				JOINT RightFoot
				{
					OFFSET -2.54143 -6.98254 0.00000
					CHANNELS 3 Zrotation Yrotation Xrotation
					JOINT RightToeBase
					{
						OFFSET -0.23309 -0.64041 1.93119
						CHANNELS 3 Zrotation Yrotation Xrotation
						End Site
						{
							OFFSET -0.00000 -0.00000 1.02013
						}
					}
				}
			}
		}
	}
	JOINT LowerBack
	{
		OFFSET 0 0 0
		CHANNELS 3 Zrotation Yrotation Xrotation
		JOINT Spine
		{
			OFFSET -0.07096 2.10460 -0.27878
			CHANNELS 3 Zrotation Yrotation Xrotation
			JOINT Spine1
			{
				OFFSET -0.00826 2.13662 -0.08279
				CHANNELS 3 Zrotation Yrotation Xrotation
				JOINT Neck
				{
					OFFSET 0 0 0
					CHANNELS 3 Zrotation Yrotation Xrotation
					JOINT Neck1
					{
						OFFSET 0.03239 1.77799 0.24435
						CHANNELS 3 Zrotation Yrotation Xrotation
						JOINT Head
						{
							OFFSET 0.01026 1.74194 -0.49664
							CHANNELS 3 Zrotation Yrotation Xrotation
							End Site
							{
								OFFSET 0.00170 1.83057 -0.19653
							}
						}
					}
				}
				JOINT LeftShoulder
				{
					OFFSET 0 0 0
					CHANNELS 3 Zrotation Yrotation Xrotation
					JOINT LeftArm
					{
						OFFSET 3.19178 1.35907 -0.31412
						CHANNELS 3 Zrotation Yrotation Xrotation
						JOINT LeftForeArm
						{
							OFFSET 4.85247 -0.00000 -0.00000
							CHANNELS 3 Zrotation Yrotation Xrotation
							JOINT LeftHand
							{
								OFFSET 3.55584 -0.00000 0.00000
								CHANNELS 3 Zrotation Yrotation Xrotation
								JOINT LeftFingerBase
								{
									OFFSET 0 0 0
									CHANNELS 3 Zrotation Yrotation Xrotation
									JOINT LeftHandIndex1
									{
										OFFSET 0.69320 -0.00000 0.00000
										CHANNELS 3 Zrotation Yrotation Xrotation
										End Site
										{
											OFFSET 0.55888 -0.00000 0.00000
										}
									}
								}
								JOINT LThumb
								{
									OFFSET 0 0 0
									CHANNELS 3 Zrotation Yrotation Xrotation
									End Site
									{
										OFFSET 0.56741 -0.00000 0.56741
									}
								}
							}
						}
					}
				}
				JOINT RightShoulder
				{
					OFFSET 0 0 0
					CHANNELS 3 Zrotation Yrotation Xrotation
					JOINT RightArm
					{
						OFFSET -3.28999 1.24191 -0.26899
						CHANNELS 3 Zrotation Yrotation Xrotation
						JOINT RightForeArm
						{
							OFFSET -4.64462 -0.00000 0.00000
							CHANNELS 3 Zrotation Yrotation Xrotation
							JOINT RightHand
							{
								OFFSET -3.40703 -0.00000 0.00000
								CHANNELS 3 Zrotation Yrotation Xrotation
								JOINT RightFingerBase
								{
									OFFSET 0 0 0
									CHANNELS 3 Zrotation Yrotation Xrotation
									JOINT RightHandIndex1
									{
										OFFSET -0.61958 -0.00000 0.00000
										CHANNELS 3 Zrotation Yrotation Xrotation
										End Site
										{
											OFFSET -0.49952 -0.00000 0.00000
										}
									}
								}
								JOINT RThumb
								{
									OFFSET 0 0 0
									CHANNELS 3 Zrotation Yrotation Xrotation
									End Site
									{
										OFFSET -0.50715 -0.00000 0.50715
									}
								}
							}
						}
					}
				}
			}
		}
	}
}
MOTION
Frames: 9
Frame Time: .0083333
-28.9165 18.7936 2.9061 0 0 0 0 0 0 -21 0 0 0 0 0 0 0 0 0 0 0 0 0 0 21 0 0 0 0 0 0 0 0 0 0 0 0 0 0 0 0 0 0 0 0 0 0 -16 0 0 21 0 0 11 0 0 0 -8 0 0 0 0 0 0 0 0 0 0 0 0 0 0 0 0 0 0 0 0 8 0 0 0 0 0 0 0 0 0 0 0 0 0 0 0 0 0
-28.9165 18.7936 2.9061 -30.6472 17.4476 -11.3912 0.0000 0.0000 0.0000 13.7475 8.8741 -8.5791 3.0829 10.8281 31.7023 -0.7827 15.4657 -6.7474 0.0041 0.4112 1.1300 0.0000 0.0000 0.0000 5.3199 -26.3894 -31.5361 -10.8966 -17.8841 62.4454 -0.1960 -10.0728 -17.1471 -2.3559 -9.5711 27.5987 -12.7312 1.1631 26.1093 -5.1447 -2.1950 6.2714 2.2070 -0.8637 -7.1490 -1.0941 -0.2137 -22.1134 11.8134 -2.3934 15.8441 3.9177 0.1276 8.8053 0.0000 -0.0000 0.0000 -52.3723 -27.2834 31.9759 22.5516 -33.5948 -6.8886 -0.0000 0.0000 -9.0752 26.2999 -23.2359 -11.0332 -7.1250 0.0000 -0.0000 -1.7397 4.3994 1.6019 0.0000 -0.0000 0.0000 74.7690 -31.4947 -33.9392 -24.1304 35.3018 -7.7818 0.0000 -0.0000 -36.8302 -36.1738 -36.3914 23.4518 7.1250 -0.0000 -0.0000 -4.0615 -72.3416 2.6394
-28.6666 18.9356 2.9772 -32.6498 15.4380 -12.4307 0.0000 0.0000 0.0000 17.0045 9.4881 -8.2182 3.5294 11.5063 34.0071 -0.7343 15.1968 -2.8452 0.0003 0.1051 0.2887 0.0000 0.0000 0.0000 9.2803 -27.4121 -31.3541 -10.3767 -17.6163 60.7402 -0.1444 -10.2181 -16.6494 -1.1254 -6.7385 18.9428 -10.7876 0.8311 26.0737 -5.0967 -2.1140 6.3410 1.1608 -0.8610 -7.1616 -0.0113 0.2709 -22.5424 11.6216 -2.1121 16.5079 3.7362 0.3476 9.0821 -0.0000 -0.0000 0.0000 -50.8533 -28.7997 33.7159 23.2112 -34.3190 -7.2570 -0.0000 0.0000 -11.9152 26.7800 -20.6852 -10.1083 -7.1250 0.0000 -0.0000 -1.1247 7.0581 0.9782 -0.0000 -0.0000 0.0000 73.9713 -31.8766 -34.4813 -24.7515 35.9489 -8.1436 0.0000 -0.0000 -38.0557 -37.3930 -36.5444 24.4721 7.1250 -0.0000 -0.0000 -6.1376 -72.9117 4.0673
-28.4144 19.0610 3.0412 -32.8287 13.8101 -12.6686 0.0000 0.0000 0.0000 17.9539 9.6396 -8.1281 4.0209 12.1881 36.4007 -0.5838 14.6596 0.9788 0.0331 1.1747 3.2296 0.0000 0.0000 0.0000 10.9190 -27.9708 -31.3927 -10.0544 -17.4403 59.6699 -0.1774 -9.2818 -15.9678 -0.3581 -3.8446 10.6399 -10.2942 0.7674 25.8269 -5.6164 -2.0912 6.3143 0.3005 -0.8640 -7.1178 1.3747 0.6888 -22.5924 11.3798 -1.9773 16.8904 3.4535 0.4947 9.2096 0.0000 0.0000 0.0000 -49.8984 -30.6335 34.0270 23.4862 -34.6162 -7.4126 -0.0000 0.0000 -12.6732 26.1630 -19.1272 -9.1444 -7.1250 0.0000 -0.0000 -1.3449 8.8579 1.1221 0.0000 0.0000 0.0000 73.4563 -32.6081 -34.8469 -25.3485 36.5580 -8.4966 0.0000 -0.0000 -39.9677 -38.7262 -36.4608 25.4800 7.1250 -0.0000 -0.0000 -8.6703 -73.2689 5.8189
-28.1578 19.1565 3.1296 -32.5069 11.8804 -12.6958 0.0000 0.0000 0.0000 18.5101 10.1251 -7.8637 4.5203 12.8223 38.7069 -0.3657 13.7376 4.2460 0.1324 2.3455 6.4614 0.0000 0.0000 0.0000 11.6775 -27.7733 -31.3461 -9.8735 -17.3381 59.0649 -0.2634 -8.4243 -16.1678 -0.4062 -4.0916 11.3346 -10.2673 0.8272 25.0353 -6.0837 -1.9443 6.3109 -0.2783 -0.8163 -6.7535 2.2806 1.0970 -22.6256 11.1374 -1.6924 17.2120 3.2703 0.6776 9.3077 -0.0000 0.0000 0.0000 -48.9723 -32.1801 34.2934 23.9786 -35.1416 -7.6942 -0.0000 0.0000 -13.8629 24.8891 -18.1044 -8.2040 -7.1250 0.0000 -0.0000 -2.0708 10.1704 1.6737 -0.0000 0.0000 0.0000 72.1576 -33.3518 -34.6990 -25.9817 37.1906 -8.8766 0.0000 -0.0000 -42.1807 -37.8022 -36.9442 24.9972 7.1250 -0.0000 -0.0000 -6.6559 -73.4734 4.4928
-27.9137 19.2478 3.2041 -31.2573 10.2019 -12.8666 0.0000 0.0000 0.0000 17.8758 10.1917 -7.3746 5.0627 13.4541 41.0929 -0.1856 12.9281 6.4340 0.3336 3.7120 10.2677 0.0000 0.0000 0.0000 10.9937 -26.9982 -30.6891 -9.7347 -17.2579 58.5978 -0.5013 -7.2814 -17.9796 -2.0496 -8.9686 25.6973 -12.1136 0.8303 24.7650 -5.8762 -2.3236 6.4739 1.0841 -1.0080 -6.2999 1.3222 1.7412 -23.7088 10.8503 -0.5478 18.0163 3.5413 1.1695 9.7055 -0.0000 -0.0000 0.0000 -49.0040 -33.1348 32.6981 24.3710 -35.5541 -7.9213 -0.0000 0.0000 -14.7001 23.9524 -17.2194 -7.4918 -7.1250 0.0000 -0.0000 -2.6093 11.2616 2.0517 -0.0000 -0.0000 0.0000 67.7156 -32.1441 -34.2890 -25.9190 37.1286 -8.8387 0.0000 -0.0000 -43.0358 -38.2436 -37.5396 25.6518 7.1250 -0.0000 -0.0000 -7.1377 -74.2534 4.9389
-27.6857 19.3018 3.2684 -29.3387 8.7053 -12.6492 0.0000 0.0000 0.0000 16.3711 10.2986 -7.4529 5.6812 14.1121 43.6883 -0.1796 12.4211 6.0413 0.6024 4.9683 13.8181 0.0000 0.0000 0.0000 9.5517 -25.8771 -30.6619 -9.7464 -17.2648 58.6375 -0.4427 -7.4437 -17.4457 -1.3994 -7.4833 21.1554 -13.7751 1.1045 24.2080 -6.5674 -2.3598 6.3107 1.2315 -1.0178 -6.1381 2.1848 2.2177 -23.5985 10.3303 -0.0925 18.3817 3.2912 1.3916 9.7914 0.0000 0.0000 0.0000 -48.0014 -34.2079 33.1549 24.9963 -36.2002 -8.2877 -0.0000 0.0000 -15.9661 23.7386 -16.1545 -6.9759 -7.1250 0.0000 -0.0000 -2.6689 12.4348 2.0338 0.0000 0.0000 0.0000 65.3565 -31.0977 -37.2044 -25.1497 36.3567 -8.3785 0.0000 -0.0000 -41.7734 -37.9748 -37.6613 25.4977 7.1250 -0.0000 -0.0000 -6.5333 -74.2905 4.5250
-27.4290 19.3437 3.3482 -29.5503 6.7759 -12.8163 0.0000 0.0000 0.0000 17.5318 10.8615 -7.2790 6.2146 14.6331 45.8369 -0.3444 13.1635 3.8876 0.4764 4.4267 12.2803 0.0000 0.0000 0.0000 10.0772 -24.4865 -29.8339 -9.5564 -17.1528 57.9953 -0.3910 -6.6067 -16.0579 -0.0001 0.0685 -0.1881 -13.0616 0.9163 23.6069 -6.7554 -2.3705 6.1644 0.6353 -1.0367 -6.0463 2.9324 2.7153 -23.4272 9.8636 0.4254 18.7790 3.0887 1.6406 9.8816 0.0000 -0.0000 0.0000 -46.8232 -34.8459 33.6118 25.8841 -37.0941 -8.8177 -0.0000 0.0000 -17.3284 23.8579 -15.4596 -6.7235 -7.1250 0.0000 -0.0000 -2.5387 13.1664 1.8956 0.0000 -0.0000 0.0000 62.9909 -31.1881 -37.4352 -25.5810 36.7920 -8.6355 0.0000 -0.0000 -42.9307 -38.5333 -37.8307 26.0331 7.1250 -0.0000 -0.0000 -7.5295 -74.6599 5.2764
-27.1955 19.3714 3.4061 -28.2984 5.3200 -13.1787 0.0000 0.0000 0.0000 16.9162 10.7330 -6.6434 6.5951 14.9812 47.3258 -0.5985 14.9898 1.3221 0.6454 5.1392 14.3061 0.0000 0.0000 0.0000 8.6422 -22.9899 -28.7931 -9.4702 -17.1009 57.7024 -0.4784 -5.2736 -16.0627 -0.2965 3.5011 -9.6771 -14.1568 1.0638 23.6869 -7.0799 -2.5072 6.0461 0.9077 -1.0865 -6.1616 3.4176 3.1163 -23.1346 9.5042 0.9025 18.9999 2.9520 1.8549 9.8921 0.0000 0.0000 0.0000 -45.5335 -35.4539 33.9706 26.8793 -38.0639 -9.4246 -0.0000 0.0000 -18.6759 23.7986 -15.3475 -6.6578 -7.1250 0.0000 -0.0000 -2.5707 13.2947 1.9126 0.0000 0.0000 0.0000 60.3416 -31.2438 -37.4669 -26.2692 37.4733 -9.0510 0.0000 -0.0000 -44.4520 -38.4452 -37.9528 26.0236 7.1250 -0.0000 -0.0000 -7.2740 -74.7585 5.1122
